HIERARCHY
ROOT Hips
{
     OFFSET 1.88212 96.90440 -13.34250
     CHANNELS 6 Xposition Yposition Zposition Zrotation Xrotation Yrotation
     JOINT Spine
     {
          OFFSET 0.00000 11.89050 0.00000
          CHANNELS 3 Zrotation Xrotation Yrotation
          JOINT Spine1
          {
               OFFSET -0.00000 25.65740 0.12766
               CHANNELS 3 Zrotation Xrotation Yrotation
               JOINT HEad
               {
                    OFFSET 0.00000 8.73416 0.01134
                    CHANNELS 3 Zrotation Xrotation Yrotation
                    End Site
                    {
                         OFFSET -0.29000 12.77420 2.51395
                    }
               }
               JOINT LeftShoulder1
               {
                    OFFSET 8.99000 -0.36225 -0.22000
                    CHANNELS 3 Zrotation Xrotation Yrotation
                    JOINT LeftArm
                    {
                         OFFSET 10.28270 -0.00338 0.32212
                         CHANNELS 3 Zrotation Xrotation Yrotation
                         JOINT LeftForeArm
                         {
                              OFFSET 32.76690 0.09914 -1.42434
                              CHANNELS 3 Zrotation Xrotation Yrotation
                              JOINT LeftHand
                              {
                                   OFFSET 27.56430 0.08536 1.02216
                                   CHANNELS 3 Zrotation Xrotation Yrotation
                                   End Site
                                   {
                                        OFFSET 16.74430 -0.60000 1.50291
                                   }
                              }
                         }
                    }
               }
               JOINT RightShoulder
               {
                    OFFSET -8.99000 -0.36225 -0.22000
                    CHANNELS 3 Zrotation Xrotation Yrotation
                    JOINT RightArm
                    {
                         OFFSET -10.28270 -0.00338 0.32212
                         CHANNELS 3 Zrotation Xrotation Yrotation
                         JOINT RightForeArm
                         {
                              OFFSET -32.89710 0.09914 -1.42434
                              CHANNELS 3 Zrotation Xrotation Yrotation
                              JOINT RightHand
                              {
                                   OFFSET -27.49210 0.08536 1.02216
                                   CHANNELS 3 Zrotation Xrotation Yrotation
                                   End Site
                                   {
                                        OFFSET -16.63120 -0.60000 1.50291
                                   }
                              }
                         }
                    }
               }
          }
     }
     JOINT LeftUpLeg
     {
          OFFSET 8.94580 -8.66707 0.10165
          CHANNELS 3 Zrotation Xrotation Yrotation
          JOINT LeftLeg
          {
               OFFSET 0.00000 -44.42270 1.37270
               CHANNELS 3 Zrotation Xrotation Yrotation
               JOINT LeftFoot
               {
                    OFFSET -0.25355 -42.09240 -1.46059
                    CHANNELS 3 Zrotation Xrotation Yrotation
                    JOINT LeftToes
                    {
                         OFFSET -0.04000 -4.41509 8.49910
                         CHANNELS 3 Zrotation Xrotation Yrotation
                         End Site
                         {
                              OFFSET 0.08000 -0.04745 9.77979
                         }
                    }
               }
          }
     }
     JOINT RightUpLeg
     {
          OFFSET -8.94580 -8.66707 0.10165
          CHANNELS 3 Zrotation Xrotation Yrotation
          JOINT RightLeg
          {
               OFFSET 0.00000 -44.42270 1.37270
               CHANNELS 3 Zrotation Xrotation Yrotation
               JOINT RightFoot
               {
                    OFFSET 0.25355 -42.09240 -1.46059
                    CHANNELS 3 Zrotation Xrotation Yrotation
                    JOINT RightToes
                    {
                         OFFSET 0.04000 -4.41509 8.49910
                         CHANNELS 3 Zrotation Xrotation Yrotation
                         End Site
                         {
                              OFFSET -0.08000 -0.13745 9.77979
                         }
                    }
               }
          }
     }
}
MOTION
Frames: 17
Frame Time: 0.01667
-350.12451 95.64181 -125.46873 -4.90877 11.46933 -137.17134 -1.19954 18.99115 -3.67689 -0.00180 0.00812 -0.00594 5.89328 -1.35690 13.89524 0.68775 8.96775 -0.35740 -69.06862 -24.40526 -78.69077 -9.96606 4.38862 -75.62886 7.34385 9.33157 -9.12515 20.29604 9.15648 -3.44542 88.15957 -15.83303 77.79578 15.15882 35.72307 100.77573 17.49876 11.95201 7.91808 12.13790 -3.46284 1.51841 -16.75827 4.86457 38.38216 -0.54996 0.00202 0.00037 7.94299 -13.67340 -63.83443 -20.95446 13.30055 12.94951 41.53590 21.31637 -44.59350 -30.44392 -0.12111 -0.04323 5.41327 -30.64520 20.22521 
-350.63251 95.74217 -125.41818 -5.03411 11.53629 -136.07086 -1.06995 19.25679 -3.59679 -0.00212 0.00805 -0.00644 5.83450 -1.39241 12.58195 0.54291 8.89939 -0.44810 -69.40878 -24.00187 -79.07732 -9.96116 5.21453 -75.96685 7.60592 9.27201 -9.00414 20.60054 9.04299 -3.50714 88.17741 -16.41615 77.82858 15.22344 35.80501 101.00483 17.56481 11.97637 7.84231 11.73173 -3.29747 2.04400 -16.50390 5.00589 37.79215 -0.58516 0.00267 0.00041 7.92589 -13.91889 -64.76966 -21.35091 12.27945 13.43328 42.49344 23.03448 -45.02388 -30.04016 -0.00099 -0.00673 4.79294 -32.78493 10.46147 
-351.10529 95.82437 -125.35110 -5.12682 11.59980 -135.08754 -0.96024 19.50727 -3.47059 -0.00206 0.00795 -0.00691 5.78542 -1.43133 11.32171 0.42040 8.83192 -0.59003 -69.81717 -23.77435 -79.18182 -10.02465 6.22930 -76.49385 7.92972 9.16374 -8.99591 20.90058 8.91762 -3.59244 88.22040 -16.91443 77.88735 15.28643 35.86155 101.17216 17.64524 11.99082 7.76703 11.37160 -3.21684 2.40458 -16.25045 5.19513 37.44044 -0.66629 0.00312 0.00046 7.92407 -14.16056 -65.64716 -21.75907 11.31081 13.95033 43.47234 24.24232 -45.62470 -29.13680 0.00255 -0.00308 5.14496 -31.36630 14.80419 
-351.54422 95.88836 -125.26738 -5.18322 11.65968 -134.22148 -0.86788 19.74088 -3.30679 -0.00183 0.00781 -0.00732 5.74696 -1.47525 10.12549 0.36451 8.75944 -0.77587 -70.32100 -23.69757 -79.15285 -10.15671 7.35281 -77.10133 8.28238 9.03825 -9.02714 21.18991 8.77840 -3.69578 88.28291 -17.33073 77.96811 15.35716 35.89767 101.27186 17.73534 11.99338 7.70233 11.05437 -3.21842 2.61680 -15.99740 5.42425 37.29688 -0.78595 0.00339 0.00050 7.94065 -14.38800 -66.44082 -22.18007 10.41947 14.49336 44.41861 25.11938 -46.32685 -28.81597 0.01050 -0.00141 5.15697 -31.55680 12.47314 
-351.94965 95.93642 -125.16962 -5.20216 11.71564 -133.47273 -0.79075 19.95709 -3.11399 -0.00154 0.00766 -0.00774 5.71796 -1.52638 9.00343 0.36924 8.68287 -0.99799 -70.90880 -23.75285 -79.09190 -10.34924 8.54039 -77.71809 8.62755 8.91698 -9.10082 21.45337 8.62864 -3.81079 88.36942 -17.66613 78.06914 15.44125 35.92102 101.30365 17.83333 11.99106 7.65296 10.77786 -3.29550 2.69368 -15.74938 5.68744 37.33577 -0.93879 0.00352 0.00053 7.97864 -14.59715 -67.13365 -22.60139 9.61812 15.05382 45.31677 25.68839 -47.09066 -28.35729 0.01064 -0.00089 5.22262 -30.97636 13.38507 
-352.30780 95.97519 -125.05969 -5.19228 11.76966 -132.83987 -0.70987 20.13114 -2.87539 0.00011 0.00551 -0.00747 5.66766 -1.55047 7.92962 0.29476 8.64475 -0.35265 -71.66534 -22.75175 -79.14854 -10.63118 9.71319 -78.19197 9.05466 9.16046 -9.30653 21.66492 8.49427 -3.88477 88.49625 -17.94945 78.19987 15.47521 35.95231 101.24229 17.92483 12.00170 7.63394 10.54106 -3.43583 2.64536 -15.51336 5.98126 37.53639 -1.12182 0.00358 0.00055 8.04240 -14.79065 -67.72158 -23.02514 8.91547 15.62912 46.10552 25.99308 -47.88649 -28.13241 0.01146 -0.00088 5.19626 -30.84025 12.55339 
-352.61212 96.01006 -124.94231 -5.15950 11.82298 -132.32318 -0.64281 20.29337 -2.61711 -0.00110 0.00830 -0.00854 5.61559 -1.57915 6.94266 0.34446 8.61678 -0.35833 -72.46222 -22.52169 -79.09624 -10.84575 10.92726 -78.72169 9.41624 9.24707 -9.44258 21.79997 8.36745 -4.03817 88.67918 -18.07405 78.35521 15.51202 35.98827 101.12389 18.01348 12.02542 7.63273 10.34725 -3.63009 2.48330 -15.29446 6.30149 37.88059 -1.33381 0.00361 0.00058 8.13612 -14.97534 -68.21011 -23.44615 8.31157 16.21635 46.76543 26.03795 -48.69208 -27.87549 0.01113 -0.00079 5.15117 -30.56746 12.52341 
-352.86829 96.04344 -124.82495 -5.10315 11.87535 -131.92439 -0.59611 20.45570 -2.35717 -0.00150 0.00953 -0.00938 5.56606 -1.62351 6.06375 0.44527 8.60565 -0.76289 -73.26542 -22.89853 -79.07344 -11.11789 12.22560 -79.32761 9.69829 9.27262 -9.77787 21.84042 8.25835 -4.21830 88.92394 -18.08191 78.53534 15.55657 36.01980 100.97912 18.09322 12.05622 7.65079 10.20103 -3.87102 2.22109 -15.09472 6.64284 38.35000 -1.57481 0.00360 0.00061 8.25963 -15.15448 -68.60767 -23.86192 7.80279 16.81100 47.28004 25.84105 -49.47153 -27.70321 0.01099 -0.00017 5.14445 -30.45789 12.15185 
-353.02695 96.05817 -124.69968 -5.05870 11.93678 -131.63631 -0.66012 20.79851 -2.10017 -0.00373 0.01142 -0.00785 5.58304 -1.81265 5.33907 0.75039 8.45876 -1.44748 -74.16859 -23.81209 -79.19874 -11.51953 13.48848 -79.68577 10.06898 9.23142 -9.62014 21.77125 8.04330 -4.18656 89.32889 -17.98725 78.81379 15.51230 36.04017 100.69698 18.15125 12.11121 7.68003 10.09868 -4.13887 1.86758 -14.91905 7.00888 38.92986 -1.84237 0.00358 0.00066 8.40753 -15.30667 -68.92194 -24.28017 7.39828 17.41942 47.66683 25.42393 -50.19963 -27.52801 0.01112 0.00086 5.19234 -30.38273 12.08023 
-353.00320 95.95201 -124.53093 -5.21909 12.07198 -131.35347 -0.54630 20.86687 -2.11704 0.01939 -0.02720 -0.01289 5.77581 -1.35944 4.62876 2.99632 5.13284 -2.75578 -75.45915 -24.77074 -76.70960 -11.75713 15.30941 -80.54009 8.83490 12.41220 -13.31629 23.97423 5.10580 -3.09837 86.59875 -20.28170 76.61678 15.05663 36.19038 101.45024 12.30894 14.18809 8.01724 10.06523 -4.74476 1.56716 -14.19676 7.91356 38.12715 0.29310 0.01526 -0.03479 6.55373 -13.84471 -62.08434 -24.17262 7.06422 17.85756 47.11583 25.01346 -50.03522 -26.97788 0.00969 -0.00355 10.36116 -31.75634 17.59488 
-352.59738 95.83304 -124.15376 -5.63401 12.25291 -131.07718 -0.27396 20.70572 -2.40090 0.02199 -0.02850 -0.01459 6.13220 -0.28439 3.94493 6.42650 -0.33278 -4.03697 -76.87809 -25.74187 -72.61153 -11.82297 17.64456 -81.96905 6.94609 16.85181 -17.91859 28.06993 0.53015 -1.23803 80.92244 -24.02950 72.51405 14.21179 36.47195 103.14411 3.89555 17.05143 7.75242 10.06109 -5.77414 1.33922 -13.18503 9.58253 36.06594 3.42658 0.06226 -0.04417 3.24564 -10.76263 -50.92677 -23.47448 6.83570 18.11612 45.58962 24.66958 -49.06854 -26.08843 0.00573 -0.01307 18.63256 -30.17777 26.04962 
-351.84091 95.68543 -123.59712 -6.29832 12.43899 -130.82713 0.11847 20.24143 -2.95579 0.02288 -0.02537 -0.01527 6.59707 1.54957 3.32346 10.56851 -6.97767 -5.01936 -78.19044 -26.95520 -67.50838 -11.74160 20.38432 -83.96227 4.65266 21.54743 -22.07644 33.83661 -4.73167 1.21895 72.09229 -28.17724 66.65380 12.98187 36.79222 105.68751 -4.86441 20.46227 5.69981 10.02704 -7.27283 1.21475 -12.10689 12.23839 32.87888 5.96797 0.08531 -0.03982 -1.41492 -5.44632 -37.67687 -22.24879 6.70121 18.17760 43.11186 24.49706 -47.29579 -24.87696 -0.00294 -0.02663 25.73668 -22.94533 32.24261 
-350.84845 95.52905 -122.88307 -7.17960 12.71105 -130.72798 1.47714 18.53996 -4.40956 0.07256 -0.06861 -0.05098 7.08721 5.93980 2.99955 16.59196 -15.03766 -7.42734 -79.42740 -31.00389 -61.06548 -11.52109 24.16246 -86.71342 0.29363 24.94293 -23.25962 43.09112 -11.00439 3.92205 54.99494 -31.93722 57.11650 16.47398 37.81773 106.38570 1.25936 12.85318 4.44572 9.98382 -9.91780 1.38208 -10.95749 18.35519 26.47487 5.72181 0.03273 -0.07445 -2.94752 -7.17566 -34.57898 -20.03021 6.36224 17.41997 38.67730 25.32359 -42.68981 -22.89099 -0.03826 -0.07716 20.41317 -20.70665 25.53628 
-349.69794 95.49063 -122.11372 -8.12897 13.02110 -130.89590 3.53024 15.71749 -6.53893 0.06790 -0.04754 -0.05443 7.40200 12.60460 2.86911 14.77818 -11.88725 -6.56541 -77.23992 -32.92075 -67.38472 -11.85335 28.44085 -89.34396 -3.28612 25.49534 -21.64865 51.50311 -16.21321 4.69981 38.97850 -28.96246 49.71527 18.55498 38.44571 106.59720 -3.79924 15.18779 2.37676 10.03019 -12.57620 1.84745 -9.49368 26.42325 17.95530 1.01225 -0.29291 -0.16549 -8.76402 6.84463 -17.03501 -17.12782 5.81858 15.90885 32.42405 26.86394 -35.27597 -20.13293 -0.09864 -0.12633 20.68638 -17.20191 22.27634 
-348.61816 95.56020 -121.26306 -8.93331 13.38409 -131.38055 6.18246 12.04731 -9.28530 0.06198 -0.01939 -0.05507 7.11612 21.18131 3.12811 12.09260 -7.68254 -5.56538 -74.36926 -36.22298 -74.71778 -13.25800 32.67648 -91.35178 -8.42521 24.75824 -18.88617 48.27960 -11.75762 2.91829 37.20040 -30.81403 49.88387 19.16761 39.00973 106.87750 -0.86995 10.79925 2.17263 10.05262 -15.24083 2.53385 -7.18652 33.93028 8.28338 -3.60100 -0.36142 -0.17243 -5.58332 -0.99437 -13.02857 -13.81977 5.11584 13.65118 24.54744 28.46151 -25.07044 -16.70500 -0.16675 -0.16527 18.65603 -13.44605 14.27553 
-347.72351 95.69660 -120.38353 -9.53719 14.14813 -134.02644 9.26161 8.51330 -10.84569 0.05061 0.00866 -0.05793 5.59344 31.10741 4.16290 8.45387 -3.05498 -4.21148 -70.83791 -41.27647 -82.23483 -15.84068 36.91601 -92.72006 2.71105 15.07380 -6.44809 44.70035 -6.49738 1.97320 35.75636 -31.49871 49.95679 18.93225 39.35321 106.89548 -4.04071 12.36163 0.89001 10.71023 -17.09715 5.17873 -4.08149 40.54992 -2.24510 -7.81976 -0.33225 -0.18473 -5.71601 -4.16009 -3.54793 -10.27801 3.93688 12.53447 15.75656 26.65894 -13.07298 -7.20521 -0.54644 -0.63470 11.29411 -8.11325 6.43003 
-347.03488 95.82115 -119.48190 -9.51352 15.05782 -138.57755 12.98404 5.75403 -11.28427 0.03910 0.03826 -0.06364 2.13125 39.81637 6.46368 4.23388 1.06340 -2.47396 -66.98705 -48.37159 -89.16740 -19.44219 41.50925 -93.71518 4.55969 11.50651 -2.58891 40.56476 -1.23512 1.86677 35.16491 -31.17703 50.47606 18.32535 39.54053 106.60265 -2.54830 9.70875 1.12125 12.09009 -18.32337 9.41234 -0.11734 46.11617 -13.35276 -11.61741 -0.28805 -0.18594 -2.16924 -9.19813 2.69020 -6.75529 2.49942 12.26050 7.95854 25.91198 -1.86837 2.33942 -0.52821 -0.32883 11.68967 -12.15542 -13.99147 
